<svg width="20" height="20" viewBox="0 0 20 20" fill="none" xmlns="http://www.w3.org/2000/svg">
<rect width="20" height="20" rx="4" fill="#067A57"/>
<mask id="path-2-inside-1" fill="white">
<path fill-rule="evenodd" clip-rule="evenodd" d="M8.65083 12.1709L14.8979 5.92383L16.3121 7.33804L8.66069 14.9894L4.29688 10.6862L5.70117 9.26216L8.65083 12.1709Z"/>
</mask>
<path fill-rule="evenodd" clip-rule="evenodd" d="M8.65083 12.1709L14.8979 5.92383L16.3121 7.33804L8.66069 14.9894L4.29688 10.6862L5.70117 9.26216L8.65083 12.1709Z" fill="white"/>
<path d="M14.8979 5.92383L16.3121 4.50961L14.8979 3.0954L13.4837 4.50961L14.8979 5.92383ZM8.65083 12.1709L7.24654 13.5949L8.66069 14.9894L10.065 13.5851L8.65083 12.1709ZM16.3121 7.33804L17.7263 8.75226L19.1405 7.33804L17.7263 5.92383L16.3121 7.33804ZM8.66069 14.9894L7.25639 16.4135L8.67054 17.808L10.0749 16.4037L8.66069 14.9894ZM4.29688 10.6862L2.87281 9.28194L1.46852 10.706L2.89258 12.1103L4.29688 10.6862ZM5.70117 9.26216L7.10546 7.8381L5.68139 6.43381L4.2771 7.85787L5.70117 9.26216ZM13.4837 4.50961L7.23662 10.7567L10.065 13.5851L16.3121 7.33804L13.4837 4.50961ZM17.7263 5.92383L16.3121 4.50961L13.4837 7.33804L14.8979 8.75226L17.7263 5.92383ZM4.2771 7.85787L2.87281 9.28194L5.72094 12.0905L7.12523 10.6665L4.2771 7.85787ZM10.0551 10.7468L7.10546 7.8381L4.29687 10.6862L7.24654 13.5949L10.0551 10.7468ZM10.0749 16.4037L17.7263 8.75226L14.8979 5.92383L7.24647 13.5752L10.0749 16.4037ZM2.89258 12.1103L7.25639 16.4135L10.065 13.5654L5.70117 9.26216L2.89258 12.1103Z" fill="white" mask="url(#path-2-inside-1)"/>
</svg>